# xmcd
#
# Track frame offsets:
#	150
#	14152
#	34631
#	52420
#	69703
#	83954
#	101367
#	120890
#	137270
#	152512
#	170704
#	189843
#
# Disc length: 2753 seconds
#
# Revision: 0
# Processed by: cddbd v1.5PL3 Copyright (c) Steve Scherf et al.
# Submitted via: dBpowerAMP V4.0
#
DISCID=980abf0c
DTITLE=Tracy Lawrence - Strong
DYEAR=1900
DGENRE=
TTITLE0=It's All How You Look At It
TTITLE1=Strong
TTITLE2=Stones
TTITLE3=Paint Me A Birmingham
TTITLE4=Everywhere But Hollywood
TTITLE5=A Far Cry From You
TTITLE6=Bobby Darwin's Daughter
TTITLE7=What The Flames Feel Like
TTITLE8=Sawdust On Her Halo
TTITLE9=When Daddy Was A Strong Man
TTITLE10=Think Of Me
TTITLE11=The Questionnaire
EXTD=
EXTT0=
EXTT1=
EXTT2=
EXTT3=
EXTT4=
EXTT5=
EXTT6=
EXTT7=
EXTT8=
EXTT9=
EXTT10=
EXTT11=
PLAYORDER=
